<?xml version="1.0" encoding="utf-8"?>
<!-- Generator: Adobe Illustrator 24.1.3, SVG Export Plug-In . SVG Version: 6.00 Build 0)  -->
<svg version="1.1" id="图层_1" xmlns="http://www.w3.org/2000/svg" xmlns:xlink="http://www.w3.org/1999/xlink" x="0px" y="0px"
	 viewBox="0 0 360 360" style="enable-background:new 0 0 360 360;" xml:space="preserve">
<style type="text/css">
	.st0{fill:#C7C7FF;}
	.st1{fill:#FF801F;}
	.st2{fill:#FF6D3D;}
	.st3{fill:#FD9472;}
	.st4{fill:#FF7345;}
	.st5{fill:#FF4A0D;}
	.st6{fill:#AD3B1C;}
	.st7{clip-path:url(#SVGID_2_);fill:#FFFFFF;}
	.st8{clip-path:url(#SVGID_2_);fill:#E6613C;}
	.st9{fill:#EFEFEF;}
	.st10{fill:#000066;}
	.st11{opacity:0.6;fill:#FF7142;}
	.st12{fill:#E6E6FF;}
	.st13{fill:#1A1A1A;}
	.st14{clip-path:url(#SVGID_4_);fill:#4D4D4D;}
	.st15{clip-path:url(#SVGID_6_);fill:#4D4D4D;}
	.st16{fill:#4D4D4D;}
	.st17{fill:#32238A;}
	.st18{fill:#25166B;}
	.st19{fill:#808080;}
	.st20{fill:#2D2D2D;}
	.st21{fill:#E3E3E3;}
	.st22{fill:#FFFFFF;}
	.st23{fill:#502B16;}
	.st24{opacity:0.5;fill:#D64815;}
	.st25{fill:#FFAA1E;}
	.st26{fill:none;stroke:#1A1A1A;stroke-width:0.9477;stroke-linecap:round;stroke-linejoin:round;stroke-miterlimit:10;}
</style>
<g>
	<g>
		<path class="st0" d="M227.9,22.7c0,0-3.4,7-3.1,13.6s4.1,0.6,4.1,0.6l0.4-1.7l-0.1-3.4l3.6-4.2l0-3.3L227.9,22.7z"/>
		<path class="st1" d="M233.8,56.4c0,0,1.1,2.7,1.2,3.7c0.1,1.1-1.3,5.7-1.3,5.7s-2.2-4.2-2.3-4.9s0-2.7,0-2.7L233.8,56.4z"/>
		<path class="st1" d="M218.7,39.2c0,0,2.9-0.5,4.5,0.4c1.6,0.9,3.1,3.7,3.1,3.9c0,0.1,0,1.4,0,1.4s4.6,0.1-0.9,1.2
			c-5.4,1-6.6,1.1-6.6,1.1l-3-1.5L218.7,39.2z"/>
		<path class="st0" d="M262.2,37.1c0,0-3.2,4.7-8.1,6.4l-0.8,0.3l4.9-6.8L262.2,37.1z"/>
		<path class="st2" d="M216.4,44.9c0,0,6.2-1.5,8.9-6l11.5,16.2c0,0-8.3,8.8-7.9,12.4L216.4,44.9z"/>
		<path class="st3" d="M231.1,30.2c0.4-3.7-2.7-5.1-4.7-4.1c-2.1,1-4.9,7.3,0.1,10.7C232.8,41.2,231.1,30.2,231.1,30.2z"/>
		<path class="st4" d="M231.1,30.2c0,0,0.4,1.4,0.4,3c-0.9,1.6-2.3,3-4.6,3.9c0,0-0.5-0.2-0.5-0.2c4.3-9.4,3.3-11,0.3-10.8
			C228.6,25.2,231.5,26.7,231.1,30.2z"/>
		<path class="st5" d="M225.2,30.1C225.1,30.1,225.1,30.1,225.2,30.1c-0.2,0-0.3-0.2-0.2-0.3c0.4-1.8,1.5-2.5,2.3-2.5
			c0.7,0,1.3,0.6,1.4,1.5c0,0.1-0.1,0.3-0.2,0.3c-0.1,0-0.3-0.1-0.3-0.2c-0.1-0.7-0.5-1.1-1-1.1c-0.6,0-1.5,0.6-1.9,2.1
			C225.4,30,225.3,30.1,225.2,30.1z"/>
		<path class="st3" d="M259.9,37.2c-2.9,4.2-8.4,11.9-13.1,16.3c-3.8,3.5-10.6,5.3-16.1,1.3c-5.5-4-7.3-13.5-4.9-18.5
			c2.5-5.1,8.8-17.2,8.8-17.2l14.9,4.6c6,1.9,10.7,6.4,10.7,12.7L259.9,37.2z"/>
		<path class="st4" d="M249.5,23.5l-11.8-3.6c-2.5,2.7-8.4,11.1-8.4,11.1s3.4,1.6,6.5-0.8c3.1-2.5,4-3.4,4-3.4s3.4,0,5.2-1.7
			c0,0,6.3,10.9,13.4,14.2c0.5-0.8,1-1.5,1.5-2.1l0.3-1C260.2,29.9,255.6,25.4,249.5,23.5z"/>
		<path class="st4" d="M229,29.4l-0.4,1l0.6,0.8c0,0,1.7,0.5,2.6,0.3c1-0.2-0.3-1.9-0.4-1.9c-0.1-0.1-0.9-0.3-1.2-0.3
			C230,29.3,229,29.4,229,29.4z"/>
		<path class="st5" d="M249.3,42.7c0.1-0.1-0.1-0.3-0.2-0.2c-1.5,1.4-5.2,4.8-5.6,5.1c-0.3,0.3,2.1,0.9,2.6,0.5
			C246.3,48,248.4,44.3,249.3,42.7z"/>
		<g>
			<path class="st6" d="M237.5,44.4c0.9,2.6,3.3,5.5,4.2,6.5c0.2,0.2,0.1,0.5-0.2,0.6c-1.2,0.2-4,0.4-5.3-1.7
				c-1.2-2.1,0-4.4,0.7-5.4C237,44.1,237.4,44.1,237.5,44.4z"/>
			<g>
				<defs>
					<path id="SVGID_1_" d="M237.5,44.4c0.9,2.6,3.3,5.5,4.2,6.5c0.2,0.2,0.1,0.5-0.2,0.6c-1.2,0.2-4,0.4-5.3-1.7
						c-1.2-2.1,0-4.4,0.7-5.4C237,44.1,237.4,44.1,237.5,44.4z"/>
				</defs>
				<clipPath id="SVGID_2_">
					<use xlink:href="#SVGID_1_"  style="overflow:visible;"/>
				</clipPath>
				<path class="st7" d="M237.9,44.7c-0.4,0.7-0.5,1.6-0.5,1.9c0.2,1,2.2,3.8,2.7,3.9c0.5,0.2,1.5-0.1,1.5-0.1L237.9,44.7z"/>
				<path class="st8" d="M238.1,53c-0.9,0.6-2.5-0.2-3.5-1.7c-1-1.6-1-3.3-0.1-3.9c0.9-0.6,2.5,0.2,3.5,1.7
					C239,50.6,239,52.4,238.1,53z"/>
			</g>
		</g>
		<path d="M244.1,41.7c-0.5,1-1.7,1.4-2.5,1c-0.9-0.5-1.1-1.6-0.6-2.6c0.5-1,1.7-1.4,2.5-1C244.3,39.5,244.6,40.7,244.1,41.7z"/>
		<path class="st4" d="M253.9,39.4c-0.2,0-1.1,0.9-1,1c0.1,0.1,2.2,0.4,3.4,1.9c0.1-0.2,0.2-0.3,0.3-0.5
			C256.1,40.6,254.6,39.5,253.9,39.4z"/>
		<path class="st4" d="M242.1,31.9c1.9,0.2,5.3,2.3,6,3.7c0.1,0.2-0.5,1.5-0.7,1.4c-0.3-0.1-2.6-3.1-5.5-4.6
			C241.1,32.1,241.2,31.8,242.1,31.9z"/>
		<path class="st9" d="M254,39.1c-0.2,0-0.9,0.8-0.8,0.9c0.1,0.1,2,0.8,3.2,2.2c0.1-0.2,0.2-0.3,0.3-0.5
			C256.3,40.6,254.9,39.2,254,39.1z"/>
		<path class="st9" d="M242.3,31.5c1.9,0.2,5.4,2.1,6.1,3.5c0.1,0.2-0.5,1.5-0.7,1.4c-0.3-0.1-2.7-3-5.7-4.4
			C241.4,31.7,241.4,31.4,242.3,31.5z"/>
		<g>
			<path class="st10" d="M256.4,27.8c-0.1,0-0.2,0.1-0.3,0.1C256.3,27.9,256.3,27.9,256.4,27.8z"/>
		</g>
		<path class="st11" d="M237.1,41.9c-1,1.4-3,1.8-4.4,0.8c-1.4-1-1.8-3-0.8-4.4c1-1.4,3-1.8,4.4-0.8
			C237.8,38.4,238.1,40.4,237.1,41.9z"/>
		<path class="st11" d="M249.8,49.8c-1.6-1.1-3.8-0.7-4.9,0.9c-0.9,1.3-0.8,2.9,0.1,4.1c0.6-0.4,1.2-0.9,1.8-1.3
			c1.1-1,2.2-2.1,3.3-3.4C250,50,249.9,49.9,249.8,49.8z"/>
		<path class="st12" d="M264,27.4c-0.8-3.7-2.9-7.3-5.9-9.7c-3.1-2.4-6.9-4.2-10.7-5.1c-2.1-0.5-4.6-0.2-6.3,1.3
			c-0.1,0.1-0.2,0.2-0.2,0.2c0,0-1-0.1-1.1-0.1c-1.2-0.1-2.3-0.1-3.4,0.2c-1.9,0.5-3.7,2-5.1,3.4c-1.9,1.9-3.3,4.3-4.1,6.8
			c-0.1,0.2-0.3,1.1-0.4,1.5c1-0.3,1.9-0.3,2.8,0.4c0.3,0.2,0.5,0.5,0.7,0.8l-1.6,3.2l0.6,0.6c5.4,0.2,8.8-5.7,8.8-5.7
			c1.3,0.1,2.7,0.4,3.9-0.4c0.8-0.5,1.5-1.4,2.5-1.5c2.4-0.4,4.2,3.5,5.6,5c3,3.4,4.8,6,8.7,8.5c0.5,0.3,2.1,0.9,2.7,0.8
			c1.9-0.2,2.5-3.1,2.7-4.6C264.5,31.2,264.4,29.3,264,27.4z"/>
		<path class="st13" d="M57.6,289.7c0,0-9.3,6.1-11.2,9.5c-1.9,3.5,16.4,15,16.4,15s11.1,8.4,20,4.7c0,0,3.2-2.4-0.4-5.3
			c-3.5-2.9-11.5-8.3-11.5-8.3L57.6,289.7z"/>
		<g>
			<defs>
				<path id="SVGID_3_" d="M57.6,289.7c0,0-9.3,6.1-11.2,9.5c-1.9,3.5,16.4,15,16.4,15s11.1,8.4,20,4.7c0,0,3.2-2.4-0.4-5.3
					c-3.5-2.9-11.5-8.3-11.5-8.3L57.6,289.7z"/>
			</defs>
			<clipPath id="SVGID_4_">
				<use xlink:href="#SVGID_3_"  style="overflow:visible;"/>
			</clipPath>
			<path class="st14" d="M46.9,297.3c0,0,3.2,9.1,21.5,18.3c0,0,7.4,4.1,16.1,2.4l-3.7,3.8c0,0-24.4-3.3-28.7-10.5
				c-4.3-7.2-8.9-11.5-8.9-11.5L46.9,297.3z"/>
		</g>
		<path class="st13" d="M166.8,309.8c0,0,0,10.2-0.2,12.7c-0.3,2.5,41.3,6.5,42.8,3.1c1.5-3.4-1.5-6.5-6.7-7.5
			c-5.1-1-18.1-3.5-22.1-13.1L166.8,309.8z"/>
		<g>
			<defs>
				<path id="SVGID_5_" d="M166.8,309.8c0,0,0,10.2-0.2,12.7c-0.3,2.5,41.3,6.5,42.8,3.1c1.5-3.4-1.5-6.5-6.7-7.5
					c-5.1-1-18.1-3.5-22.1-13.1L166.8,309.8z"/>
			</defs>
			<clipPath id="SVGID_6_">
				<use xlink:href="#SVGID_5_"  style="overflow:visible;"/>
			</clipPath>
			<path class="st15" d="M165.8,320.8c0,0,28.8,7.6,44.2,3.5l-0.7,4.1c0,0-38.1,0.4-42.5-2.5C162.4,322.9,165.8,320.8,165.8,320.8z"
				/>
		</g>
		<path class="st16" d="M179.3,323.6l-0.2,0c0.4-6.3-6.6-16.3-6.6-16.4l0.2-0.1C172.7,307.2,179.7,317.3,179.3,323.6z"/>
		<path class="st16" d="M185.6,315.3l-0.2,0c0.2-1,2.2-2.3,2.3-2.3l0.1,0.2C187.8,313.1,185.8,314.4,185.6,315.3z"/>
		<path class="st16" d="M189.2,316.4l-0.2,0c0.2-0.7,1.3-1.7,1.4-1.7l0.1,0.2C190.5,314.8,189.4,315.8,189.2,316.4z"/>
		<path class="st16" d="M192.8,317.8c-0.2-0.5,0.8-1.5,0.9-1.6l0.1,0.1c-0.4,0.4-1,1.2-0.9,1.4L192.8,317.8z"/>
		<path class="st17" d="M193.2,300c0.6,2.1,0.2,4.3-1.5,5.8c-1.3,1.2-3.1,1.7-4.8,2.2c-7.3,2.2-15,3.1-22.5,4.5
			c-7.6,1.4-4.8-10.4-6-14.8c-1-3.7-2.5-7.2-4-10.7c-4-9.2-4-26.8-7-40.9c-3.3-15.7-6.6-41-6.6-41c0.4,17.1-18.9,46.8-18.9,46.8
			s-39,56.1-46.7,55.9c-7.7-0.1-21.1-22.9-22.1-24.1c-1-1.2,0.3-5.1,2.3-5.1c2,0,6.9-4.1,14.7-19.1c7.8-15,31.4-40.5,31.4-40.5
			c-1-3.8,0.7-7.4,0.7-7.4s-1.7-38.2-1.6-50.9c0.1-21.9,17.3-39.9,17.3-39.9s44.8,38.9,51.6,44.6l14.1,62.2L193.2,300z"/>
		<path class="st18" d="M147.7,179.4l-6.6,21c-0.3,0.9-0.5,1.7-0.7,2.6l-2.2,9.2l-0.5,3.3l0.9,2.8c1.5-4.6,2.4-9.1,2.3-13
			c0,0,3.3,25.3,6.6,41c0,0,0,0.1,0,0.1l1.6,5c0,0,1-15.8-2.9-24.6c-3.9-8.8,4-47.3,4-47.3H147.7z"/>
		<path class="st18" d="M175.3,191.4l-5.8-25.8c-6.8-5.7-51.6-44.6-51.6-44.6s-17.2,18-17.3,39.9c-0.1,12.7,1.6,50.9,1.6,50.9
			s-1.7,3.6-0.7,7.4c0,0-23.7,25.5-31.4,40.5c-7.8,15-12.7,19.1-14.7,19.1c-2,0-3.3,3.9-2.3,5.1c0.4,0.5,3.1,4.9,6.6,9.8
			c7.3,0.5,13-20,13-20c0.5-22.4,33.5-46.1,33.5-46.1c2.9-3.1,0.7-7.9,0.7-7.9s1.6-26.5,1.4-37.8c-0.2-11.3,5-24.6,5-24.6
			c15.7,20.4,58.6,31.4,58.6,31.4S173.4,190.1,175.3,191.4z"/>
		<path class="st3" d="M323.7,106.3c0.1,0.1,0.3,0.3,0.3,0.4c0.2,0.5,0,1-0.3,1.5c-1.4,2-2.9,3.9-4.4,5.9c-0.6-0.8-1.1-1.5-1.7-2.3
			c0,0-0.1-0.1-0.1-0.1c0-0.1,0-0.1,0.1-0.2c0.8-1.1,1.5-2.2,2.4-3.2c0.4-0.5,0.9-1,1.4-1.5c0.4-0.4,0.9-0.8,1.5-0.8
			C323.3,106,323.5,106.1,323.7,106.3z"/>
		<path class="st3" d="M290.2,121.4c0,0,6.3-6.8,12.5-9.1c0,0,8.8-5.1,10.8-3.5c2,1.6,5.4,3.5,5,7.7c-0.5,4.2-3.8,6.4-3.8,6.4
			s-3.4,3.7-9,4.7c-5.6,1-10.1,2.7-13.8,4.8C291.9,132.4,288.2,128.5,290.2,121.4z"/>
		<g>
			<path class="st19" d="M297.6,113.9l-0.3,1.1c-0.1,0.3,0,0.5,0.2,0.7l5.3,5.9c0.3,0.3,0.7,0.4,1.1,0.3l22.6-9.3
				c0.5-0.2,0.7-1.6,0.3-1.9l-8-4.7L297.6,113.9z"/>
			<path class="st20" d="M318.5,105.6l-20.5,8c-0.6,0.2-0.7,1-0.3,1.4l5.2,6c0.3,0.2,0.6,0.3,0.9,0.2l22.5-9c0.7-0.3,0.7-1.3,0-1.6
				l-7.2-4.9C319,105.5,318.7,105.5,318.5,105.6z"/>
			<path class="st21" d="M318.4,106.6l-17.6,6.7c-0.5,0.2-0.6,0.8-0.2,1.2l4.5,4.6c0.2,0.2,0.5,0.2,0.8,0.1l18.8-7.5
				c0.6-0.3,0.6-1.1,0-1.3l-5.7-3.8C318.7,106.5,318.5,106.5,318.4,106.6z"/>
		</g>
		<path class="st3" d="M308.7,123.1c0,0,0.3-2.8,0.4-4.2c0,0-1.7-3-1.3-4.9c0.2-0.9,1.2-1.2,1.9-0.6c0.2,0.2,0.3,0.4,0.5,0.7
			c0.4,0.9,0.9,1.8,1.3,2.5c0.4,0.6,0.6,1.4,0.5,2.1c0,1.4-0.2,3.5-0.5,4.1"/>
		<path class="st3" d="M312.1,122.7c0,0,1-4,1-5.1c0-1.1-1-2.1-2.1-3.9c-0.3-0.6-0.5-1.4-0.4-1.7c0.2-0.8,0.9-1.4,1.7-1.2
			c0.4,0.1,0.7,0.3,1.1,0.9c0.9,1.4,2.7,4.1,2.8,4.9c0.1,0.7-0.7,4.6-0.7,4.6"/>
		<path class="st3" d="M316.3,120.6c0,0,0.8-5.6,0.8-6.5c0.1-0.9-1.8-3.8-1.8-5.1c0-0.8,0.3-1.3,0.8-1.6c0.3-0.2,0.7-0.3,1,0
			c0.4,0.3,0.7,0.9,1.1,1.8c0.9,2,1.5,3.2,1.5,4c0.1,0.8-0.2,4.7-0.7,5.9c0,0-3.4,3.9-6.7,5.8"/>
		<path class="st22" d="M308.8,123.2l-0.2,0l0.4-4.1c-0.2-0.3-1.6-3.1-1.3-5c0.1-0.5,0.4-0.8,0.9-1c0.4-0.1,0.9,0,1.2,0.3
			c0.2,0.2,0.3,0.4,0.5,0.7c0.4,0.9,0.9,1.8,1.3,2.4c0.4,0.6,0.6,1.4,0.6,2.1c0,1.6-0.2,3.6-0.5,4.2l-0.2-0.1
			c0.2-0.4,0.4-1.9,0.5-4.1c0-0.7-0.2-1.4-0.5-2c-0.4-0.6-0.9-1.5-1.3-2.5c-0.1-0.3-0.3-0.5-0.4-0.7c-0.2-0.3-0.6-0.3-0.9-0.2
			c-0.4,0.1-0.7,0.4-0.7,0.8c-0.4,1.9,1.2,4.8,1.2,4.8l0,0l0,0L308.8,123.2z"/>
		<path class="st22" d="M312.2,122.7l-0.2-0.1c0,0,1-4,1-5.1c0-0.7-0.4-1.3-1-2.2c-0.3-0.5-0.7-1-1-1.6c-0.3-0.6-0.5-1.4-0.4-1.8
			c0.1-0.4,0.3-0.8,0.7-1.1c0.3-0.2,0.7-0.3,1.1-0.2c0.5,0.1,0.8,0.4,1.1,0.9c0.2,0.4,0.6,0.9,0.9,1.5c0.9,1.4,1.9,2.9,1.9,3.4
			c0.1,0.7-0.6,4.3-0.6,4.4l-0.2,0c0,0,0.7-3.7,0.6-4.4c0-0.5-1.1-2.1-1.9-3.4c-0.3-0.5-0.7-1.1-0.9-1.5c-0.3-0.4-0.6-0.7-1-0.8
			c-0.3-0.1-0.6,0-0.9,0.2c-0.3,0.2-0.6,0.5-0.6,0.9c-0.1,0.4,0.1,1.1,0.4,1.7c0.4,0.6,0.7,1.1,1,1.6c0.6,0.9,1.1,1.6,1.1,2.4
			C313.2,118.7,312.2,122.6,312.2,122.7z"/>
		<path class="st22" d="M316.4,120.6l-0.2,0c0-0.1,0.8-5.6,0.8-6.5c0-0.4-0.4-1.3-0.8-2.3c-0.5-1.1-1-2.2-1-2.8
			c0-0.8,0.3-1.4,0.8-1.7c0.4-0.3,0.8-0.3,1.2,0c0.4,0.3,0.8,0.9,1.1,1.9c0.2,0.6,0.5,1.2,0.7,1.7c0.4,1,0.8,1.8,0.8,2.4
			c0.1,0.7,0,2.5-0.3,4.3l-0.2,0c0.4-1.8,0.4-3.5,0.3-4.3c0-0.5-0.4-1.3-0.8-2.3c-0.2-0.5-0.5-1.1-0.7-1.7c-0.4-1-0.7-1.5-1.1-1.8
			c-0.3-0.2-0.7-0.1-0.9,0c-0.5,0.3-0.8,0.8-0.7,1.5c0,0.7,0.5,1.8,1,2.8c0.5,1,0.9,1.9,0.8,2.4C317.2,115,316.4,120.5,316.4,120.6z
			"/>
		<path class="st4" d="M293.8,118c0,0,2.5,10,5,11.4l-3.1,1.2l-3.5-11L293.8,118z"/>
		<g>
			<defs>
				<path id="SVGID_7_" d="M193.1,300.3c0.6,2.1,0.2,4.3-1.5,5.8c-1.3,1.2-3.1,1.7-4.8,2.2c-7.3,2.2-15,3.1-22.5,4.5
					c-7.6,1.4-4.8-10.4-6-14.8c-1-3.7-2.5-7.2-4-10.7c-4-9.2-4-26.8-7-40.9c-3.3-15.7-9.6-27.4-9.6-27.4
					c0.4,17.1-15.9,33.2-15.9,33.2s-39,56.1-46.7,55.9c-7.7-0.2-21.1-22.9-22.1-24.1c-1-1.2,0.3-5.1,2.3-5.1c2,0,6.9-4.1,14.7-19.1
					c7.8-15,31.4-40.5,31.4-40.5c-1-3.8,0.7-7.4,0.7-7.4s-2.2-24.1-2.7-36.8c-0.7-17.1,8.3-42.9,8.3-42.9l61.4,48.6l13.3,53.2
					L193.1,300.3z"/>
			</defs>
			<clipPath id="SVGID_8_">
				<use xlink:href="#SVGID_7_"  style="overflow:visible;"/>
			</clipPath>
		</g>
		<path class="st3" d="M243.2,164c0,0,0.5,6.6,2.9,5.2c2.4-1.4,0.4-6,0.4-6L243.2,164z"/>
		<g>
			<path class="st23" d="M224.8,172.9c0.3,0.1,0.5,0.2,0.8,0.3c0.7,0.2,1.5,0.2,2.3,0.2c0.3,0,0.6-0.1,0.8-0.3c1.3-1,0-4.2,0-5.5
				c0-2,0.2-4.1,0.9-6c1.7-4.7,6.7-6.4,11-3.6c3.7,2.4,4.5,6.8,4.5,10.9c0.1,5.8,0,11.7,0,17.5c-0.2,22.8-1.1,45.5-1.4,68.2
				c-0.3,13.7-0.5,27.5-0.8,41.2c-0.2,10.4-0.4,20.9-0.6,31.3c-0.1,3.8-0.1,7.6-0.2,11.5l5.2,0.5c0.2-7.5,0.3-15,0.5-22.5
				c0.3-17,0.7-34,1-51c0.4-18.3,0.7-36.5,1.1-54.8c0.1-5.7,0.4-11.4,0.3-17c-0.1-7.1,0.4-14.3,0.2-21.4c-0.2-6.1-0.2-13.5-5.3-17.8
				c-4.6-4-12.8-3.7-17.1,0.7c-1.5,1.5-2.5,3.5-3,5.6c-0.6,2.1-0.9,4.3-1.1,6.5c-0.1,1.5-0.9,4.2,0.5,5.4
				C224.6,172.8,224.7,172.8,224.8,172.9z"/>
			<polygon class="st20" points="242.2,338.5 240.6,347.7 248.9,348.5 247.3,338.9 			"/>
		</g>
		<path class="st3" d="M244.3,143.8l-10.3,7.4c0,0,3.5,2.7,3.1,4c-0.4,1.3-1,1.3-2.9,1.9c0,0,0,0.5,0.3,1.2c0.5,1.1,1.6,1.7,2.8,1.9
			c0.4,0,0.7,0.1,1,0.1c0,0-0.4,2,2.2,2.9c0,0,1.1,1.6,1.9,1.7l2.9-0.5c0.6,0.1,1.1-0.2,1.5-0.6l2.6-2.7l0.9,13.8c0,0,0.9,1.2,2-1
			c1.1-2.2,1.5-10.1,1.5-10.1l0.1-7.6c0-0.5-0.1-1-0.4-1.4L244.3,143.8z"/>
		<path class="st24" d="M246,145.8c0,0-6.9,7.3-10.2,7l-1.5-1.4l10.6-6.8L246,145.8z"/>
		<path class="st22" d="M219.7,43.3c0,0,7.8,10.1,8.7,22.6l4.4-6.1c0,0,3.2,19.6,2.6,20.8c0,0-18,32-19.8,24.1
			C214,96.7,219.7,43.3,219.7,43.3z"/>
		<path class="st13" d="M225.6,70.6C225.6,70.6,225.6,70.6,225.6,70.6c-0.4,0-0.8-0.3-1-1.5c-0.3-3-2.7-10.6-2.8-10.7
			c0-0.1,0-0.1,0.1-0.1c0.1,0,0.1,0,0.1,0.1c0,0.1,2.4,7.7,2.8,10.7c0.1,0.8,0.4,1.3,0.7,1.3c0,0,0,0,0,0c0.8,0,2.1-1.8,2.7-4.5
			c0,0,0.1-0.1,0.1-0.1c0.1,0,0.1,0,0.1,0.1c0,0,0.2,2.8,1.5,3.7c0.4,0.3,0.8,0.3,1.2,0.2c2.4-0.6,2.5-2.3,2.5-2.3
			c0-0.1,0.1-0.1,0.1-0.1c0.1,0,0.1,0.1,0.1,0.1c0,0-0.2,1.9-2.7,2.5c-0.5,0.1-1,0-1.4-0.3c-1-0.7-1.4-2.4-1.5-3.3
			C227.7,68.8,226.5,70.6,225.6,70.6z"/>
		<path class="st25" d="M219.5,44.7c0,0,0.1-2.5,0.3-4.2c0.4-2.9-2.8-0.4-8.2,1.2c-5.4,1.6-26.1,4.3-52.5,27.2
			c-25.8,22.5-44.3,43.6-49.2,45.2c-5,1.7,42.4,51.8,70.5,56.9c0,0,1.6,1.9,3.5-3.3c1.8-5.2,19.2-30.9,19.2-30.9l21.7,13.7
			c0,0,2.3,4.9,7.1,2.7c4.8-2.1,15-10,15-10s2.4,4.9,24.9-1.2c22.5-6.1,23.7-7.6,24-10.9c0.3-3.3-3.9-13-4.9-14.1
			c-0.9-1.1-4.2,0.1-4.2,0.1s-18.7,1.3-33,5.8c0,0-1.2-2.9-4.4-2.7c0,0-3.5-11.4-7.8-17.1c0,0-6.2-34.8-6.7-42.8l-6.1,14
			c0,0-10.7,24.3-12.3,30.4l0.3-5.2c0,0,5.4-18.1,5.7-23.2C222.9,71.2,223.5,52.4,219.5,44.7z"/>
		<path class="st1" d="M213.3,85.2c0,0-0.7,13.5,1.1,18.2c1.9,4.7,5.2,2.8,8.1,8.3c2.9,5.5,15.4,21.4,20.6,25.9l-7.4-6.3l-9.5-9.2
			l-6.4-7l-4.2-6.2l-5.8-8.6l0.8-1.9l1.4-5.8L213.3,85.2z"/>
		<path class="st26" d="M232.7,87.8"/>
		<path class="st1" d="M184.3,79.4c0,0-14.6,15.7-15.3,26.6c-0.6,10.9,33.5,32.1,33.5,32.1l0.6-1.2c0,0-4-3.7-6.6-6.6
			c-2.6-2.9-14.3-17.1-14.3-17.1s-6.7-7.5-3.3-18C182.5,84.6,184.3,79.4,184.3,79.4z"/>
		<g>
			<path class="st22" d="M243.8,131.5l-0.2-0.1c2.4-7.3,5.7-10.4,5.7-10.5l0.1,0.2C249.4,121.1,246.1,124.2,243.8,131.5z"/>
			<path class="st22" d="M245.1,135.4l-0.2-0.1c1.9-7.4,8.3-11.9,8.3-11.9l0.1,0.2C253.3,123.7,247,128,245.1,135.4z"/>
			<path class="st22" d="M226.4,148l-0.1-0.1c0.4-0.4,9.9-9.3,14.7-9l0,0.2C236.3,138.8,226.5,148,226.4,148z"/>
			<path class="st22" d="M247.2,142.6l-0.1-0.2c0,0,0.4-0.3,0.3-0.9c-0.1-0.7-0.7-1.8-3.2-3.3c-3.8-2.2-7.1-5.6-10.3-8.8
				c-1-1-1.9-1.9-2.9-2.8c-0.4-0.4-0.9-0.8-1.3-1.3c-4.5-4.3-8.8-8.3-12.3-13.6c-0.6-0.9-1.3-2-2-3.1c-4.6-7.5-11-17.7-19.9-16.4
				l0-0.2c9-1.3,15.4,8.9,20.1,16.5c0.7,1.1,1.4,2.2,2,3.1c3.5,5.2,7.7,9.3,12.2,13.6c0.4,0.4,0.9,0.8,1.3,1.3
				c0.9,0.9,1.9,1.8,2.9,2.8c3.2,3.2,6.6,6.5,10.3,8.7c2.1,1.2,3.2,2.4,3.3,3.4C247.6,142.2,247.2,142.6,247.2,142.6z"/>
			<path class="st22" d="M209.9,100.3l-0.2-0.1c2.8-4.3,4.9-30,4.9-30.3l0.2,0C214.7,71,212.7,95.9,209.9,100.3z"/>
			<path class="st22" d="M202.3,136.3c-6.2-6-13-13.7-20.1-23.1c-3.8-5-5.1-11.5-3.5-17.4l0-0.1c1.2-4.3,7.6-23.1,8.8-25.5
				c0.3-0.5,0.3-0.9,0.1-1.2c-0.5-0.8-2.3-0.7-2.3-0.7l0-0.2c0.1,0,1.9-0.1,2.5,0.8c0.2,0.4,0.2,0.9-0.1,1.4
				c-1.2,2.4-7.6,21.2-8.8,25.5l0,0.1c-1.6,5.9-0.3,12.3,3.5,17.2c7,9.2,14,17.2,20.1,23L202.3,136.3z"/>
			<path class="st22" d="M224.1,98.8l-0.2-0.1c2.7-5.9,10.8-14.7,10.9-14.8l0.2,0.1C235,84.1,226.9,93,224.1,98.8z"/>
		</g>
		<path class="st22" d="M238.7,159.9C238.7,159.9,238.7,159.9,238.7,159.9c-0.1,0-0.1-0.1-0.1-0.1l3.6-4.1c0,0,0.1,0,0.1,0
			c0,0,0,0.1,0,0.1L238.7,159.9C238.7,159.9,238.7,159.9,238.7,159.9z"/>
		<path class="st22" d="M241,163.3C241,163.3,241,163.3,241,163.3c-0.1-0.1-0.1-0.1-0.1-0.1l4.9-4.8c0,0,0.1,0,0.1,0
			c0,0,0,0.1,0,0.1L241,163.3C241.1,163.3,241,163.3,241,163.3z"/>
		<path class="st22" d="M243.3,164.8C243.3,164.8,243.2,164.8,243.3,164.8c-0.1-0.1-0.1-0.1,0-0.2l1.4-0.2c0,0,0.1,0,0.1,0.1
			c0,0,0,0.1-0.1,0.1L243.3,164.8C243.3,164.8,243.3,164.8,243.3,164.8z"/>
		<g>
			<g>
				<path class="st22" d="M140.9,205.2l-0.2,0c4.1-24,15-45.6,15.2-45.8l0.2,0.1C155.9,159.7,145,181.3,140.9,205.2z"/>
				<path class="st22" d="M150.6,172.2l-0.1-0.2c0,0,5-2.8,6.6-4c1.6-1.2,3-6.5,3-6.5l0.2,0.1c-0.1,0.2-1.4,5.4-3.1,6.6
					C155.6,169.4,150.6,172.1,150.6,172.2z"/>
			</g>
			<path class="st22" d="M117,236c-7.1-2.6-14-16.3-14-16.4l0.2-0.1c0.1,0.1,6.9,13.8,13.9,16.3L117,236z"/>
			<path class="st22" d="M118.3,222.8c-6.4,0-14.4-9.5-14.7-10l0.2-0.1c0.1,0.1,9.4,11.3,15.9,9.7l0,0.2
				C119.2,222.8,118.7,222.8,118.3,222.8z"/>
			<path class="st22" d="M167.6,300.8c-4.1,0-7.2-0.7-7.2-0.7l0-0.2c0.1,0,13.1,3.1,22-3.6l0.1,0.2
				C177.9,300,172.1,300.8,167.6,300.8z"/>
		</g>
		<path class="st25" d="M220.1,46.1c0,0-0.8-1.8-0.3-4.1c0.6-2.3,2.6-2.7,2.6-2.7s-1.7-0.8-4.7,0.1c-3,0.9-1.9,6.4-1.9,6.4l1.1,0.7
			c0,0,0.7,0.2,1.4,0.3C219.1,47,220.1,46.1,220.1,46.1z"/>
		<path class="st22" d="M220.7,44.6c0,0-0.6-0.9,0.2-1.7c0,0-1,0-1.2,0.3c-0.2,0.3,0.7,2.1,0.7,2.1L220.7,44.6z"/>
		<path class="st0" d="M237.7,21.3c0,0-2.5,1.5-4.4,0.1c-1.5-1.1-1.6-2.9-1.2-4.6c-0.3,0.3-0.6,0.5-0.8,0.8
			c-1.9,1.9-3.3,4.3-4.1,6.8c-0.1,0.2-0.3,1.1-0.4,1.5c1-0.3,1.9-0.3,2.8,0.4c0.3,0.2,0.5,0.5,0.7,0.8l-1.6,3.2l0.6,0.6
			c5.4,0.2,8.8-5.7,8.8-5.7c0.7,0,1.4,0.1,2,0.1C237.8,24.5,237.7,21.3,237.7,21.3z"/>
		<path d="M251.9,47.8c-0.6,0.8-1.6,1.2-2.2,0.7c-0.6-0.4-0.7-1.5-0.1-2.3c0.6-0.8,1.6-1.2,2.2-0.7C252.4,46,252.4,47,251.9,47.8z"
			/>
		<path class="st4" d="M241.4,37.8c-0.1,0-0.1,0-0.2-0.1l-1.4-2.4c-0.1-0.1,0-0.2,0.1-0.3c0.1-0.1,0.2,0,0.3,0.1l1.4,2.4
			c0.1,0.1,0,0.2-0.1,0.3C241.5,37.8,241.5,37.8,241.4,37.8z"/>
		<path class="st4" d="M240.4,38.7c-0.1,0-0.1,0-0.2-0.1l-2-2c-0.1-0.1-0.1-0.2,0-0.3c0.1-0.1,0.2-0.1,0.3,0l2,2
			c0.1,0.1,0.1,0.2,0,0.3C240.5,38.7,240.4,38.7,240.4,38.7z"/>
		<path class="st4" d="M245.5,39.2c-0.1,0-0.1,0-0.2-0.1l-1.4-2.1c-0.1-0.1,0-0.2,0.1-0.3c0.1-0.1,0.2,0,0.3,0.1l1.4,2.1
			c0.1,0.1,0,0.2-0.1,0.3C245.6,39.2,245.5,39.2,245.5,39.2z"/>
		<path class="st4" d="M253.6,44.7C253.6,44.7,253.6,44.7,253.6,44.7l-2.4-1c-0.1,0-0.2-0.2-0.1-0.3c0-0.1,0.2-0.2,0.3-0.1l2.3,1
			c0.1,0,0.2,0.2,0.1,0.3C253.8,44.7,253.7,44.7,253.6,44.7z"/>
		<path class="st4" d="M234.1,44.3c-0.1,0-0.2,0-0.2-0.1c-0.1-0.1,0-0.2,0.1-0.3c1.6-0.8,3.8-1.1,3.9-1.1c0.1,0,0.2,0.1,0.3,0.2
			c0,0.1-0.1,0.2-0.2,0.3C238,43.2,235.8,43.6,234.1,44.3C234.2,44.3,234.1,44.3,234.1,44.3z"/>
		<path class="st4" d="M242.4,54c0,0-0.1,0-0.1,0c-0.1-0.1-0.1-0.2-0.1-0.3c0.9-1.3,1.3-3.4,1.3-3.4c0-0.1,0.1-0.2,0.3-0.2
			c0.1,0,0.2,0.1,0.2,0.3c0,0.1-0.4,2.3-1.3,3.6C242.5,53.9,242.5,54,242.4,54z"/>
	</g>
	<path class="st1" d="M181.5,171.3C181.5,171.3,181.5,171.3,181.5,171.3c-16.3-6.2-46.4-38.5-47.5-51.6c-0.5-6.9,9.2-30,13.9-40.8
		c-19.9,18.3-33.8,33.7-38,35.1c-4.9,1.6,42.2,51.5,70.3,56.9c0.1,0,0.2,0,0.2,0.1C180.5,171,180.9,171.5,181.5,171.3z"/>
</g>
</svg>
