
<svg xmlns="http://www.w3.org/2000/svg" version="1.1" xmlns:xlink="http://www.w3.org/1999/xlink" preserveAspectRatio="none" x="0px" y="0px" width="1024px" height="1024px" viewBox="0 0 1024 1024">
<defs>
<g id="Layer0_0_MEMBER_0_FILL">
<path fill="#1D1D1B" fill-opacity="0.09803921568627451" stroke="none" d="
M 42.45 2.45
Q 60.1 2.45 72.45 2.1 84.9 1.7 84.9 1.2 84.9 0.7 72.45 0.35 59.95 0 42.45 0 24.95 0 12.45 0.35 0 0.7 0 1.2 0 1.7 12.45 2.1 24.8 2.45 42.45 2.45 Z"/>
</g>

<g id="Layer0_0_MEMBER_1_FILL">
<path fill="#DAD1D1" stroke="none" d="
M 62.75 364.05
L 62.75 367.7 63.35 367.7 63.35 364.05 68.8 364.05 68.8 367.7 69.3 367.7 69.3 364.05 74.75 364.05 74.75 367.7 75.25 367.7 75.25 364.05 80.7 364.05 80.7 367.7 81.2 367.7 81.2 364.05 86.65 364.05 86.65 367.7 87.15 367.7 87.15 364.05 91.15 364.05 91.15 363.2 47.3 363.2
Q 46.35 363.2 45.6 363.9 44.9 364.65 44.9 365.6
L 44.9 367.7 45.4 367.7 45.4 365.75
Q 45.4 365.05 45.9 364.55 46.4 364.05 47.1 364.05
L 50.85 364.05 50.85 367.7 51.35 367.7 51.35 364.05 56.8 364.05 56.8 367.7 57.3 367.7 57.3 364.05 62.75 364.05 Z"/>
</g>

<g id="Layer0_0_MEMBER_2_FILL">
<path fill="#88A84C" stroke="none" d="
M 42.5 368
Q 41.95 368.5 41.95 369.25
L 41.95 384.55 123.55 384.55 125.65 383.9
Q 126.35 383.7 126.8 382.9 126.95 382.55 126.95 382.1
L 126.95 375.5
Q 126.95 374.1 126.5 372.35 126.25 371.3 125.45 370.6 124.7 369.9 123.65 369.8
L 111.45 367.75 110.95 367.55 110.7 367.3 110.55 367.1 110.35 366.6 109.4 358.7
Q 109.1 356 108.9 355.25
L 108.8 355 108.75 354.8
Q 108.3 353.45 107.35 352.85 106.25 352.1 104.25 352.1
L 94.55 352.1
Q 93.15 352.1 92.15 353.1 91.15 354.1 91.15 355.5
L 91.15 367.45 43.8 367.45
Q 43 367.45 42.5 368 Z"/>
</g>

<g id="Layer0_0_MEMBER_3_FILL">
<path fill="#A7CB64" stroke="none" d="
M 43.8 371.35
L 43.8 382.4 87.9 382.4 87.9 381.55
Q 87.9 377.3 84.95 374.35 81.95 371.35 77.75 371.35
L 43.8 371.35 Z"/>
</g>

<g id="Layer0_0_MEMBER_4_FILL">
<path fill="#614F49" stroke="none" d="
M 41.95 382.5
L 41.95 384.55 123.55 384.55 125.65 383.9
Q 126.35 383.7 126.8 382.9
L 126.95 382.5 41.95 382.5 Z"/>
</g>

<g id="Layer0_0_MEMBER_5_FILL">
<path fill="#FF4515" stroke="none" d="
M 42.15 372.7
Q 42.15 370.6 42.05 369.75 41.25 369.7 41.25 372.65 41.25 375.6 42.05 375.6 42.15 374.8 42.15 372.7 Z"/>
</g>

<g id="Layer0_0_MEMBER_6_FILL">
<path fill="#614F49" stroke="none" d="
M 109.95 378.05
Q 107.75 380.25 107.75 383.4
L 107.75 384.55 122.9 384.55 122.9 383.4
Q 122.9 380.25 120.7 378.05 118.45 375.85 115.3 375.85 112.2 375.85 109.95 378.05 Z"/>
</g>

<g id="Layer0_0_MEMBER_7_FILL">
<path fill="#614F49" stroke="none" d="
M 57.15 378.05
Q 54.95 380.25 54.95 383.4
L 54.95 384.55 70.05 384.55 70.05 383.4
Q 70.05 380.25 67.85 378.05 65.65 375.85 62.5 375.85 59.4 375.85 57.15 378.05 Z"/>
</g>

<g id="Layer0_0_MEMBER_8_FILL">
<path fill="#3E312C" stroke="none" d="
M 110.45 379.35
Q 108.5 381.35 108.5 384.15
L 108.5 384.55 122.15 384.55 122.15 383.75
Q 122 381.1 120.05 379.2 118.1 377.35 115.35 377.35
L 115.25 377.35
Q 112.45 377.35 110.45 379.35 Z"/>
</g>

<g id="Layer0_0_MEMBER_9_FILL">
<path fill="#FFE697" stroke="none" d="
M 127.2 370.35
Q 127.15 371 127.15 372.7 127.15 374.3 127.25 375 128.05 374.95 128.05 372.65 128 370.3 127.2 370.35 Z"/>
</g>

<g id="Layer0_0_MEMBER_10_MEMBER_0_FILL">
<path fill="#EDEDED" stroke="none" d="
M 124.4 381.15
Q 124.05 381.5 124.05 382 124.05 382.5 124.4 382.85 124.75 383.2 125.25 383.2
L 127.25 383.2
Q 127.75 383.2 128.1 382.85 128.45 382.5 128.45 382 128.45 381.5 128.1 381.15 127.75 380.8 127.25 380.8
L 125.25 380.8
Q 124.75 380.8 124.4 381.15 Z"/>
</g>

<g id="Layer0_0_MEMBER_11_FILL">
<path fill="#614F49" stroke="none" d="
M 124.65 376.45
Q 124.2 376.45 124.2 376.9 124.2 377.35 124.65 377.35
L 126.95 377.35 126.95 376.45 124.65 376.45 Z"/>
</g>

<g id="Layer0_0_MEMBER_12_FILL">
<path fill="#614F49" stroke="none" d="
M 124.65 377.75
Q 124.2 377.75 124.2 378.2 124.2 378.65 124.65 378.65
L 126.95 378.65 126.95 377.75 124.65 377.75 Z"/>
</g>

<g id="Layer0_0_MEMBER_13_FILL">
<path fill="#614F49" stroke="none" d="
M 124.65 379.05
Q 124.2 379.05 124.2 379.5 124.2 379.95 124.65 379.95
L 126.95 379.95 126.95 379.05 124.65 379.05 Z"/>
</g>

<g id="Layer0_0_MEMBER_14_FILL">
<path fill="#3E312C" stroke="none" d="
M 57.65 379.35
Q 55.65 381.35 55.65 384.15
L 55.65 384.55 69.35 384.55 69.35 383.75
Q 69.2 381.1 67.25 379.2 65.3 377.35 62.55 377.35
L 62.45 377.35
Q 59.65 377.35 57.65 379.35 Z"/>
</g>

<g id="Layer0_0_MEMBER_15_FILL">
<path fill="#A7CB64" stroke="none" d="
M 117.3 370.6
Q 112.3 371.6 112.3 372.65 112.3 373.75 117.35 374.75 121.8 375.65 124.7 375.6 125.95 375.6 126.7 375.35
L 126.7 375.05
Q 126.6 374.4 126.6 372.7 126.55 371 126.65 370.3
L 126.7 370
Q 125.95 369.75 124.7 369.75 121.6 369.8 117.3 370.6 Z"/>
</g>

<g id="Layer0_0_MEMBER_16_FILL">
<path fill="#614F49" stroke="none" d="
M 126.7 370
L 126.65 370.3
Q 126.55 371 126.6 372.7 126.6 374.4 126.7 375.05
L 126.7 375.35
Q 127.1 375.2 127.25 374.95 127.55 374.65 127.5 374 127.4 373.15 127.4 372.7 127.5 371.8 127.5 371.4 127.55 370.7 127.25 370.35
L 126.7 370 Z"/>
</g>

<g id="Layer0_0_MEMBER_17_FILL">
<path fill="#FFE697" stroke="none" d="
M 127.2 370.35
Q 127.15 371 127.15 372.7 127.15 374.3 127.25 375 128.05 374.95 128.05 372.65 128 370.3 127.2 370.35 Z"/>
</g>

<g id="Layer0_0_MEMBER_18_MEMBER_0_FILL">
<path fill="#EDEDED" stroke="none" d="
M 40.35 381.55
Q 40.05 381.9 40.05 382.4 40.05 382.9 40.35 383.3 40.7 383.65 41.1 383.65
L 42.8 383.65
Q 43.2 383.65 43.5 383.3 43.8 382.9 43.8 382.4 43.8 381.9 43.5 381.55 43.2 381.2 42.8 381.2
L 41.1 381.2
Q 40.7 381.2 40.35 381.55 Z"/>
</g>

<g id="Layer0_0_MEMBER_19_FILL">
<path fill="#A7CB64" stroke="none" d="
M 106.7 356.4
Q 106.7 355.5 106.1 354.9 105.45 354.25 104.6 354.25
L 95.65 354.25
Q 94.75 354.25 94.15 354.9 93.5 355.5 93.5 356.4
L 93.5 380.3
Q 93.5 380.95 93.95 381.4 94.4 381.85 95.05 381.85
L 105.15 381.85
Q 105.8 381.85 106.25 381.4 106.7 380.95 106.7 380.3
L 106.7 356.4 Z"/>
</g>

<g id="Layer0_0_MEMBER_20_MEMBER_0_FILL">
<path fill="#ABEDE3" stroke="none" d="
M 108.05 355.3
Q 107.75 355.6 107.75 355.95
L 107.75 366.1
Q 107.75 366.6 108.1 366.95 108.45 367.3 109 367.3
L 110.7 367.3 110.55 367.1 110.35 366.6 109.4 358.7
Q 109.1 356 108.9 355.25
L 108.8 355 108.7 355
Q 108.35 355 108.05 355.3 Z"/>
</g>

<g id="Layer0_0_MEMBER_20_MEMBER_1_FILL">
<path fill="#614F49" stroke="none" d="
M 107.9 355.15
Q 107.55 355.45 107.55 355.95
L 107.55 366.1
Q 107.55 366.7 108 367.15 108.4 367.55 109 367.55
L 110.95 367.55 110.7 367.3 110.55 367.1 109 367.1
Q 108.6 367.1 108.3 366.8 108 366.5 108 366.1
L 108 355.95
Q 108 355.25 108.7 355.25
L 108.9 355.25 108.8 355 108.75 354.8 108.7 354.8
Q 108.2 354.8 107.9 355.15 Z"/>
</g>

<g id="Layer0_0_MEMBER_21_FILL">
<path fill="#ABEDE3" stroke="none" d="
M 104.7 367.3
Q 105.2 367.3 105.5 366.95 105.85 366.65 105.85 366.15
L 105.85 356.2
Q 105.85 355.7 105.5 355.35 105.2 355 104.7 355
L 95.55 355
Q 95.05 355 94.7 355.35 94.35 355.7 94.35 356.2
L 94.35 366.15
Q 94.35 366.65 94.7 366.95 95.05 367.3 95.55 367.3
L 104.7 367.3 Z"/>
</g>

<g id="Layer0_0_MEMBER_22_FILL">
<path fill="#614F49" stroke="none" d="
M 105.65 355.2
Q 105.25 354.8 104.7 354.8
L 95.55 354.8
Q 94.95 354.8 94.55 355.2 94.15 355.65 94.15 356.2
L 94.15 366.15
Q 94.15 366.7 94.55 367.15 94.95 367.55 95.55 367.55
L 104.7 367.55
Q 105.25 367.55 105.65 367.15 106.05 366.7 106.05 366.15
L 106.05 356.2
Q 106.05 355.65 105.65 355.2
M 105.35 355.5
Q 105.65 355.8 105.65 356.2
L 105.65 366.15
Q 105.65 366.55 105.35 366.85 105.1 367.1 104.7 367.1
L 95.55 367.1
Q 95.15 367.1 94.85 366.85 94.55 366.55 94.55 366.15
L 94.55 356.2
Q 94.55 355.8 94.85 355.5 95.15 355.25 95.55 355.25
L 104.7 355.25
Q 105.1 355.25 105.35 355.5 Z"/>
</g>

<g id="Layer0_0_MEMBER_23_FILL">
<path fill="#614F49" stroke="none" d="
M 96.75 368.75
Q 95 368.75 95 369.25 95 369.75 96.75 369.75 98.55 369.75 98.55 369.25 98.55 368.75 96.75 368.75 Z"/>
</g>

<g id="Layer0_0_MEMBER_24_MEMBER_0_MEMBER_0_FILL">
<path fill="#88A84C" stroke="none" d="
M 49.25 378.15
Q 49.25 377.45 47.85 376.95 46.4 376.5 44.05 376.5 41.4 376.5 40.9 376.85 40.55 377.1 40.55 378.15 40.55 379.25 40.9 379.45 41.4 379.8 44 379.8 46.3 379.85 47.8 379.35 49.25 378.85 49.25 378.15 Z"/>
</g>

<g id="Layer0_0_MEMBER_24_MEMBER_1_FILL">
<path fill="#FFE697" stroke="none" d="
M 40.95 379.55
Q 41.1 378.1 40.95 376.75 40.45 376.7 40.45 378.15 40.45 379.55 40.95 379.55 Z"/>
</g>

<g id="Layer0_0_MEMBER_25_MEMBER_0_FILL">
<path fill="#FFFFFF" fill-opacity="0.4980392156862745" stroke="none" d="
M 0 0.6
L 0 1.2 4.5 11.15 8.5 11.15 3.5 0 0.65 0
Q 0 0 0 0.6 Z"/>
</g>

<g id="Layer0_0_MEMBER_25_MEMBER_1_FILL">
<path fill="#FFFFFF" fill-opacity="0.4980392156862745" stroke="none" d="
M 4 0
L 9 11.15 9.8 11.15
Q 10.05 11.15 10.2 11
L 5.3 0 4 0 Z"/>
</g>

<g id="Layer0_0_MEMBER_26_MEMBER_0_FILL">
<path fill="#614F49" stroke="none" d="
M 104.25 361.25
L 104.25 366.15
Q 104.25 366.55 104.65 366.55
L 105.9 366.55
Q 106.3 366.55 106.3 366.15
L 106.3 361.3
Q 106.3 360.7 105.7 360.7
L 104.8 360.7
Q 104.25 360.7 104.25 361.25 Z"/>
</g>

<g id="Layer0_0_MEMBER_26_MEMBER_1_FILL">
<path fill="#3C3C3B" stroke="none" d="
M 107.55 368.55
Q 107.65 368.75 107.85 368.75
L 108 368.7
Q 108.3 368.55 108.15 368.2
L 105.85 363.75
Q 105.7 363.45 105.35 363.55 105.1 363.7 105.2 364.05
L 107.55 368.55 Z"/>
</g>

<g id="Layer0_0_MEMBER_27_FILL">
<path fill="#000000" fill-opacity="0.09803921568627451" stroke="none" d="
M 86.9 4.75
L 86.9 4.3 1.9 0 1.9 0.55
Q 1.15 0.65 0.9 0.75
L 0.9 0.7
Q 0.4 0.65 0.4 2.1 0.4 3.5 0.9 3.5
L 0.9 3.45
Q 1.05 3.55 1.9 3.65
L 1.9 5.15 1.05 5.15
Q 0.65 5.15 0.3 5.5 0 5.85 0 6.35 0 6.85 0.3 7.25 0.65 7.6 1.05 7.6
L 1.9 7.6 1.9 8.5 83.5 8.5 85.6 7.85
Q 86.2 7.7 86.55 7.15
L 87.2 7.15
Q 87.7 7.15 88.05 6.8 88.4 6.45 88.4 5.95 88.4 5.45 88.05 5.1 87.7 4.75 87.2 4.75
L 86.9 4.75 Z"/>
</g>

<g id="Layer0_0_MEMBER_28_MEMBER_0_FILL">
<path fill="#FFFFFF" stroke="none" d="
M 117.8 384.35
Q 117.8 383.3 117.1 382.6 116.35 381.85 115.3 381.85 114.3 381.85 113.55 382.6 112.85 383.3 112.85 384.35 112.85 385.35 113.55 386.1 114.3 386.8 115.3 386.8 116.35 386.8 117.1 386.1 117.8 385.35 117.8 384.35 Z"/>
</g>

<g id="Layer0_0_MEMBER_28_MEMBER_1_FILL">
<path fill="#1D1715" stroke="none" d="
M 119.7 379.95
Q 117.9 378.1 115.3 378.1 112.75 378.1 110.95 379.95 109.1 381.75 109.1 384.35 109.1 386.95 110.95 388.75 112.75 390.55 115.3 390.55 117.9 390.55 119.7 388.75 121.55 386.95 121.55 384.35 121.55 381.75 119.7 379.95
M 115.3 380.1
Q 117.05 380.1 118.3 381.35 119.55 382.6 119.55 384.35 119.55 386.1 118.3 387.35 117.05 388.55 115.3 388.55 113.55 388.55 112.35 387.35 111.1 386.1 111.1 384.35 111.1 382.6 112.35 381.35 113.55 380.1 115.3 380.1 Z"/>
</g>

<g id="Layer0_0_MEMBER_28_MEMBER_2_FILL">
<path fill="#DAD1D1" stroke="none" d="
M 115.3 379.95
Q 113.5 379.95 112.25 381.25 110.95 382.55 110.95 384.35 110.95 386.15 112.25 387.45 113.5 388.7 115.3 388.7 117.15 388.7 118.4 387.45 119.7 386.15 119.7 384.35 119.7 382.55 118.4 381.25 117.15 379.95 115.3 379.95
M 112.2 381.9
L 113.05 382.75
Q 112.75 383.15 112.55 383.85
L 111.4 383.85
Q 111.45 382.8 112.2 381.9
M 113.75 382.05
L 112.9 381.2
Q 113.7 380.55 114.85 380.4
L 114.85 381.6
Q 114.2 381.7 113.75 382.05
M 115.3 381.95
L 115.8 382
Q 116.3 382.1 116.65 382.3
L 117.35 383 117.7 383.85 117.75 384.35 117.7 384.8
Q 117.65 385.15 117.35 385.65 117.05 386.05 116.65 386.35 116.15 386.65 115.8 386.7
L 115.3 386.75 114.85 386.7
Q 114.5 386.65 114 386.35 113.6 386.05 113.3 385.65 113 385.15 112.95 384.8
L 112.9 384.35 112.95 383.85 113.3 383 114 382.3
Q 114.35 382.1 114.85 382
L 115.3 381.95
M 115.8 381.6
L 115.8 380.4
Q 116.95 380.55 117.75 381.2
L 116.9 382.05
Q 116.45 381.7 115.8 381.6
M 117.6 382.75
L 118.45 381.9
Q 119.2 382.8 119.25 383.85
L 118.1 383.85
Q 117.9 383.15 117.6 382.75
M 117.65 385.95
Q 117.95 385.4 118.1 384.8
L 119.25 384.8
Q 119.2 385.85 118.45 386.75
L 117.65 385.95
M 116.95 386.65
L 117.8 387.45
Q 116.85 388.15 115.8 388.3
L 115.8 387.1
Q 116.25 387.05 116.95 386.65
M 111.4 384.8
L 112.55 384.8
Q 112.7 385.4 113 385.95
L 112.2 386.75
Q 111.45 385.85 111.4 384.8
M 114.85 387.1
L 114.85 388.3
Q 113.8 388.15 112.85 387.45
L 113.7 386.65
Q 114.4 387.05 114.85 387.1 Z"/>
</g>

<g id="Layer0_0_MEMBER_29_MEMBER_0_FILL">
<path fill="#FFFFFF" stroke="none" d="
M 65 384.35
Q 65 383.3 64.3 382.6 63.55 381.85 62.5 381.85 61.5 381.85 60.75 382.6 60.05 383.3 60.05 384.35 60.05 385.35 60.75 386.1 61.5 386.8 62.5 386.8 63.55 386.8 64.3 386.1 65 385.35 65 384.35 Z"/>
</g>

<g id="Layer0_0_MEMBER_29_MEMBER_1_FILL">
<path fill="#1D1715" stroke="none" d="
M 56.3 384.35
Q 56.3 386.95 58.15 388.75 59.95 390.55 62.5 390.55 65.1 390.55 66.9 388.75 68.75 386.95 68.75 384.35 68.75 381.75 66.9 379.95 65.1 378.1 62.5 378.1 59.95 378.1 58.15 379.95 56.3 381.75 56.3 384.35
M 59.55 387.35
Q 58.3 386.1 58.3 384.35 58.3 382.6 59.55 381.35 60.75 380.1 62.5 380.1 64.25 380.1 65.5 381.35 66.75 382.6 66.75 384.35 66.75 386.1 65.5 387.35 64.25 388.55 62.5 388.55 60.75 388.55 59.55 387.35 Z"/>
</g>

<g id="Layer0_0_MEMBER_29_MEMBER_2_FILL">
<path fill="#DAD1D1" stroke="none" d="
M 58.15 384.35
Q 58.15 386.15 59.45 387.45 60.7 388.7 62.5 388.7 64.35 388.7 65.6 387.45 66.9 386.15 66.9 384.35 66.9 382.55 65.6 381.25 64.35 379.95 62.5 379.95 60.7 379.95 59.45 381.25 58.15 382.55 58.15 384.35
M 59.4 381.9
L 60.25 382.75
Q 59.95 383.15 59.75 383.85
L 58.6 383.85
Q 58.65 382.8 59.4 381.9
M 58.55 384.8
L 59.75 384.8
Q 59.9 385.4 60.2 385.95
L 59.4 386.75
Q 58.7 385.9 58.55 384.8
M 60.5 385.65
Q 60.2 385.15 60.15 384.8
L 60.1 384.35 60.15 383.85
Q 60.2 383.5 60.5 383
L 61.2 382.3
Q 61.55 382.1 62.05 382
L 62.5 381.95 63 382
Q 63.5 382.1 63.85 382.3
L 64.55 383 64.9 383.85 64.95 384.35 64.9 384.8 64.55 385.65
Q 64.25 386.05 63.85 386.35 63.35 386.65 63 386.7
L 62.5 386.75 62.05 386.7
Q 61.7 386.65 61.2 386.35 60.8 386.05 60.5 385.65
M 62.05 381.6
Q 61.4 381.7 60.9 382.05
L 60.1 381.2
Q 60.9 380.55 62.05 380.4
L 62.05 381.6
M 64.8 382.75
L 65.65 381.9
Q 66.3 382.7 66.45 383.85
L 65.3 383.85
Q 65.1 383.15 64.8 382.75
M 64.95 381.2
L 64.1 382.05
Q 63.65 381.7 63 381.6
L 63 380.4
Q 64.15 380.55 64.95 381.2
M 64.8 385.95
Q 65.15 385.45 65.3 384.8
L 66.45 384.8
Q 66.4 385.85 65.65 386.75
L 64.8 385.95
M 62.05 387.1
L 62.05 388.3
Q 60.9 388.15 60.05 387.45
L 60.9 386.65
Q 61.6 387.05 62.05 387.1
M 63 388.3
L 63 387.1
Q 63.45 387.05 64.15 386.65
L 64.95 387.45
Q 64.1 388.15 63 388.3 Z"/>
</g>
</defs>

<g transform="matrix( 10, 0, 0, 10, 96.85,708.65) ">
<use xlink:href="#Layer0_0_MEMBER_0_FILL"/>
</g>

<g transform="matrix( 10, 0, 0, 10, -323.15,-3184.85) ">
<use xlink:href="#Layer0_0_MEMBER_1_FILL"/>
</g>

<g transform="matrix( 10, 0, 0, 10, -323.15,-3184.85) ">
<use xlink:href="#Layer0_0_MEMBER_2_FILL"/>
</g>

<g transform="matrix( 10, 0, 0, 10, -323.15,-3184.85) ">
<use xlink:href="#Layer0_0_MEMBER_3_FILL"/>
</g>

<g transform="matrix( 10, 0, 0, 10, -323.15,-3184.85) ">
<use xlink:href="#Layer0_0_MEMBER_4_FILL"/>
</g>

<g transform="matrix( 10, 0, 0, 10, -323.15,-3184.85) ">
<use xlink:href="#Layer0_0_MEMBER_5_FILL"/>
</g>

<g transform="matrix( 10, 0, 0, 10, -323.15,-3184.85) ">
<use xlink:href="#Layer0_0_MEMBER_6_FILL"/>
</g>

<g transform="matrix( 10, 0, 0, 10, -323.15,-3184.85) ">
<use xlink:href="#Layer0_0_MEMBER_7_FILL"/>
</g>

<g transform="matrix( 10, 0, 0, 10, -323.15,-3184.85) ">
<use xlink:href="#Layer0_0_MEMBER_8_FILL"/>
</g>

<g transform="matrix( 10, 0, 0, 10, -323.15,-3184.85) ">
<use xlink:href="#Layer0_0_MEMBER_9_FILL"/>
</g>

<g transform="matrix( 10, 0, 0, 10, -323.15,-3184.85) ">
<use xlink:href="#Layer0_0_MEMBER_10_MEMBER_0_FILL"/>
</g>

<g transform="matrix( 10, 0, 0, 10, -323.15,-3184.85) ">
<use xlink:href="#Layer0_0_MEMBER_11_FILL"/>
</g>

<g transform="matrix( 10, 0, 0, 10, -323.15,-3184.85) ">
<use xlink:href="#Layer0_0_MEMBER_12_FILL"/>
</g>

<g transform="matrix( 10, 0, 0, 10, -323.15,-3184.85) ">
<use xlink:href="#Layer0_0_MEMBER_13_FILL"/>
</g>

<g transform="matrix( 10, 0, 0, 10, -323.15,-3184.85) ">
<use xlink:href="#Layer0_0_MEMBER_14_FILL"/>
</g>

<g transform="matrix( 10, 0, 0, 10, -323.15,-3184.85) ">
<use xlink:href="#Layer0_0_MEMBER_15_FILL"/>
</g>

<g transform="matrix( 10, 0, 0, 10, -323.15,-3184.85) ">
<use xlink:href="#Layer0_0_MEMBER_16_FILL"/>
</g>

<g transform="matrix( 10, 0, 0, 10, -323.15,-3184.85) ">
<use xlink:href="#Layer0_0_MEMBER_17_FILL"/>
</g>

<g transform="matrix( 10, 0, 0, 10, -323.15,-3184.85) ">
<use xlink:href="#Layer0_0_MEMBER_18_MEMBER_0_FILL"/>
</g>

<g transform="matrix( 10, 0, 0, 10, -323.15,-3184.85) ">
<use xlink:href="#Layer0_0_MEMBER_19_FILL"/>
</g>

<g transform="matrix( 10, 0, 0, 10, -323.15,-3184.85) ">
<use xlink:href="#Layer0_0_MEMBER_20_MEMBER_0_FILL"/>
</g>

<g transform="matrix( 10, 0, 0, 10, -323.15,-3184.85) ">
<use xlink:href="#Layer0_0_MEMBER_20_MEMBER_1_FILL"/>
</g>

<g transform="matrix( 10, 0, 0, 10, -323.15,-3184.85) ">
<use xlink:href="#Layer0_0_MEMBER_21_FILL"/>
</g>

<g transform="matrix( 10, 0, 0, 10, -323.15,-3184.85) ">
<use xlink:href="#Layer0_0_MEMBER_22_FILL"/>
</g>

<g transform="matrix( 10, 0, 0, 10, -323.15,-3184.85) ">
<use xlink:href="#Layer0_0_MEMBER_23_FILL"/>
</g>

<g transform="matrix( 10, 0, 0, 10, -323.15,-3184.85) ">
<use xlink:href="#Layer0_0_MEMBER_24_MEMBER_0_MEMBER_0_FILL"/>
</g>

<g transform="matrix( 10, 0, 0, 10, -323.15,-3184.85) ">
<use xlink:href="#Layer0_0_MEMBER_24_MEMBER_1_FILL"/>
</g>

<g transform="matrix( 10, 0, 0, 10, 625.85,371.15) ">
<use xlink:href="#Layer0_0_MEMBER_25_MEMBER_0_FILL"/>
</g>

<g transform="matrix( 10, 0, 0, 10, 625.85,371.15) ">
<use xlink:href="#Layer0_0_MEMBER_25_MEMBER_1_FILL"/>
</g>

<g transform="matrix( 10, 0, 0, 10, -323.15,-3184.85) ">
<use xlink:href="#Layer0_0_MEMBER_26_MEMBER_0_FILL"/>
</g>

<g transform="matrix( 10, 0, 0, 10, -323.15,-3184.85) ">
<use xlink:href="#Layer0_0_MEMBER_26_MEMBER_1_FILL"/>
</g>

<g transform="matrix( 10, 0, 0, 10, 77.35,575.65) ">
<use xlink:href="#Layer0_0_MEMBER_27_FILL"/>
</g>

<g transform="matrix( 10, 0, 0, 10, -323.15,-3184.85) ">
<use xlink:href="#Layer0_0_MEMBER_28_MEMBER_0_FILL"/>
</g>

<g transform="matrix( 10, 0, 0, 10, -323.15,-3184.85) ">
<use xlink:href="#Layer0_0_MEMBER_28_MEMBER_1_FILL"/>
</g>

<g transform="matrix( 10, 0, 0, 10, -323.15,-3184.85) ">
<use xlink:href="#Layer0_0_MEMBER_28_MEMBER_2_FILL"/>
</g>

<g transform="matrix( 10, 0, 0, 10, -323.15,-3184.85) ">
<use xlink:href="#Layer0_0_MEMBER_29_MEMBER_0_FILL"/>
</g>

<g transform="matrix( 10, 0, 0, 10, -323.15,-3184.85) ">
<use xlink:href="#Layer0_0_MEMBER_29_MEMBER_1_FILL"/>
</g>

<g transform="matrix( 10, 0, 0, 10, -323.15,-3184.85) ">
<use xlink:href="#Layer0_0_MEMBER_29_MEMBER_2_FILL"/>
</g>
</svg>
